<svg width="81" height="81" viewBox="0 0 81 81" fill="none" xmlns="http://www.w3.org/2000/svg">
<g filter="url(#filter0_d_2401_152)">
<path d="M70.4453 57.4189C69.1862 59.2167 67.7709 60.8965 66.2168 62.4375L51.6729 65.1689L46.1689 66.8916L40.8467 69.168L34.8799 72.626C33.038 72.3446 31.2417 71.9251 29.501 71.3799L31.0713 70.2119L38.9502 65.6445L39.0557 65.583L39.168 65.5352L44.6875 63.1758L44.7803 63.1357L44.876 63.1055L50.709 61.2803L50.8242 61.2588L68.4365 57.9502L70.4453 57.4189ZM76.2617 44.0195C75.9183 45.6525 75.4663 47.2452 74.9131 48.79L74.7109 48.8652L68.7979 50.3721L68.6758 50.4033L68.5508 50.418L50.8301 52.6211L42.4258 54.9277L37.0811 57.1367L31.9209 59.8389L27.0088 62.958L21.1367 67.5381C19.9506 66.7995 18.8091 65.9963 17.7188 65.1309L24.624 59.7471L24.7002 59.6875L24.7812 59.6357L29.8516 56.415L29.9219 56.3701L29.9961 56.332L35.3857 53.5098L35.4697 53.4756L41.0098 51.1855L41.124 51.1377L41.2441 51.1055L49.9141 48.7246L50.0537 48.6865L50.1973 48.6689L67.9258 46.4648L73.5166 45.041L76.2617 44.0195ZM76.3291 29.2061C76.6082 30.5956 76.808 32.0135 76.9248 33.4551L72.9375 35.6807L72.8252 35.7441L61.5654 40.2412L61.4932 40.2705L61.4189 40.2939L41.4863 46.5098L33.4287 50.0586L28.3213 52.8809L23.4189 56.0518L14.9922 62.7373C14.0315 61.8066 13.121 60.8245 12.2666 59.7939L21.0098 52.8574L21.0859 52.7979L21.167 52.7451L26.207 49.4854L26.2656 49.4473L26.3262 49.4141L31.5762 46.5137L31.6553 46.4697L39.9766 42.8037L40.0801 42.7588L40.1875 42.7246L60.1611 36.4951L71.0957 32.127L76.3291 29.2061ZM70.7627 15.9404C71.5191 17.056 72.2139 18.2162 72.8457 19.415L69.1494 22.5166L69.0596 22.5918L68.9619 22.6553L61.4414 27.5957L61.3584 27.6504L40.0488 38.7705L29.8359 44.8008L22.6348 49.9121L13.6357 57.5986L11.8955 59.3369C11.051 58.2845 10.263 57.1851 9.53711 56.042L10.8701 54.71L10.9248 54.6543L20.1045 46.8135L20.1729 46.7549L20.2461 46.7031L27.5859 41.4932L27.6543 41.4443L27.7266 41.4014L38.0566 35.3018L38.1016 35.2754L59.333 24.1934L66.668 19.376L70.7627 15.9404ZM60.8584 6.06934C61.9778 6.82271 63.0521 7.63764 64.0791 8.50684L58.876 13.71L58.8428 13.7402L52.2031 19.8105L52.1611 19.8486L52.1172 19.8838L47.4668 23.6738L47.4219 23.7109L47.375 23.7451L27.959 37.7793L20.916 43.2285L9.80664 53.1084L8.54004 54.374C7.85099 53.1498 7.22967 51.8825 6.68262 50.5762L7.01953 50.2402L7.06055 50.1982L18.3047 40.1992L18.3555 40.1543L18.4092 40.1123L25.5293 34.6025L25.5557 34.582L25.582 34.5635L44.9824 20.5381L49.5361 16.8271L56.1094 10.8184L60.8584 6.06934ZM48.8115 0.814453C50.2985 1.16191 51.7501 1.60139 53.1611 2.12402L41.7637 13.5225L41.749 13.5361L13.6299 40.5566L5.83496 48.3506C5.33962 46.9092 4.93123 45.4275 4.61719 43.9111L10.8438 37.6855L10.8584 37.6719L38.9521 10.6758L48.8115 0.814453ZM4 33.2158C4.20946 30.8251 4.64696 28.5004 5.29395 26.2637L30.2656 1.29199C32.5016 0.645338 34.8259 0.20941 37.2158 0L4 33.2158Z" fill="#FFAA00"/>
</g>
<defs>
<filter id="filter0_d_2401_152" x="0" y="0" width="80.9248" height="80.626" filterUnits="userSpaceOnUse" color-interpolation-filters="sRGB">
<feFlood flood-opacity="0" result="BackgroundImageFix"/>
<feColorMatrix in="SourceAlpha" type="matrix" values="0 0 0 0 0 0 0 0 0 0 0 0 0 0 0 0 0 0 127 0" result="hardAlpha"/>
<feOffset dy="4"/>
<feGaussianBlur stdDeviation="2"/>
<feComposite in2="hardAlpha" operator="out"/>
<feColorMatrix type="matrix" values="0 0 0 0 0 0 0 0 0 0 0 0 0 0 0 0 0 0 0.25 0"/>
<feBlend mode="normal" in2="BackgroundImageFix" result="effect1_dropShadow_2401_152"/>
<feBlend mode="normal" in="SourceGraphic" in2="effect1_dropShadow_2401_152" result="shape"/>
</filter>
</defs>
</svg>
